#Exported from google sketchup
mtllib Cube.mtl
v 0.839867 0.000000 1.391120
v -1.190545 0.000000 -0.574205
v -1.190545 0.000000 1.391120
v 0.839867 0.000000 -0.574205
v 0.839867 1.631950 -0.574205
v -1.190545 1.631950 1.391120
v -1.190545 1.631950 -0.574205
v 0.839867 1.631950 1.391120
# 8 elements
vt 0.000000 0.000000 0.0000
vt 0.000000 0.000000 0.0000
vt 0.000000 0.000000 0.0000
vt 0.000000 0.000000 0.0000
vt 0.000000 0.000000 0.0000
vt 0.000000 0.000000 0.0000
vt 0.000000 0.000000 0.0000
vt 0.000000 0.000000 0.0000
# 8 elements
vn 0.000000 -1.000000 0.000000
vn 0.000000 1.000000 0.000000
vn -0.000000 -1.000000 -0.000000
vn 0.000000 0.000000 1.000000
vn 0.000000 0.000000 -1.000000
vn 1.000000 0.000000 0.000000
vn -1.000000 -0.000000 -0.000000
vn -0.000000 -0.000000 -1.000000
vn -1.000000 0.000000 0.000000
# 9 elements
#  24 faces
usemtl Default_Material
f 3/3/1 2/2/1 1/1/1
f 4/4/1 1/1/1 2/2/1
f 1/1/2 2/2/2 3/3/2
f 2/2/2 1/1/2 4/4/2
f 7/7/2 6/6/2 5/5/2
f 8/8/2 5/5/2 6/6/2
f 5/5/3 6/6/3 7/7/3
f 6/6/3 5/5/3 8/8/3
f 3/3/4 1/1/4 6/6/4
f 8/8/4 6/6/4 1/1/4
f 6/6/5 1/1/5 3/3/5
f 1/1/5 6/6/5 8/8/5
f 4/4/6 5/5/6 1/1/6
f 8/8/6 1/1/6 5/5/6
f 1/1/7 5/5/7 4/4/7
f 5/5/7 1/1/7 8/8/7
f 4/4/8 2/2/8 5/5/8
f 7/7/8 5/5/8 2/2/8
f 5/5/4 2/2/4 4/4/4
f 2/2/4 5/5/4 7/7/4
f 7/7/9 2/2/9 6/6/9
f 3/3/9 6/6/9 2/2/9
f 6/6/6 2/2/6 7/7/6
f 2/2/6 6/6/6 3/3/6